<svg xmlns="http://www.w3.org/2000/svg" viewBox="0 0 120 120">
  <rect width="120" height="120" rx="26" fill="#123b35"/>
  <g fill="#6fd7c4">
    <rect x="25" y="22" width="12" height="12" rx="2"/>
    <rect x="39" y="22" width="12" height="12" rx="2"/>
    <rect x="67" y="22" width="12" height="12" rx="2"/>
    <rect x="81" y="22" width="12" height="12" rx="2"/>
    <rect x="11" y="36" width="12" height="12" rx="2"/>
    <rect x="25" y="36" width="12" height="12" rx="2"/>
    <rect x="39" y="36" width="12" height="12" rx="2"/>
    <rect x="53" y="36" width="12" height="12" rx="2"/>
    <rect x="67" y="36" width="12" height="12" rx="2"/>
    <rect x="81" y="36" width="12" height="12" rx="2"/>
    <rect x="95" y="36" width="12" height="12" rx="2"/>
    <rect x="11" y="50" width="12" height="12" rx="2"/>
    <rect x="25" y="50" width="12" height="12" rx="2"/>
    <rect x="39" y="50" width="12" height="12" rx="2"/>
    <rect x="53" y="50" width="12" height="12" rx="2"/>
    <rect x="67" y="50" width="12" height="12" rx="2"/>
    <rect x="81" y="50" width="12" height="12" rx="2"/>
    <rect x="95" y="50" width="12" height="12" rx="2"/>
    <rect x="25" y="64" width="12" height="12" rx="2"/>
    <rect x="39" y="64" width="12" height="12" rx="2"/>
    <rect x="53" y="64" width="12" height="12" rx="2"/>
    <rect x="67" y="64" width="12" height="12" rx="2"/>
    <rect x="81" y="64" width="12" height="12" rx="2"/>
    <rect x="39" y="78" width="12" height="12" rx="2"/>
    <rect x="53" y="78" width="12" height="12" rx="2"/>
    <rect x="67" y="78" width="12" height="12" rx="2"/>
    <rect x="53" y="92" width="12" height="12" rx="2"/>
  </g>
  <g fill="#eafbf6" opacity="0.5">
    <rect x="25" y="36" width="12" height="12" rx="2"/>
    <rect x="11" y="50" width="12" height="12" rx="2"/>
    <rect x="25" y="50" width="12" height="12" rx="2"/>
  </g>
</svg>
